<mxfile host="app.diagrams.net" agent="Mozilla/5.0 (Windows NT 10.0; Win64; x64) AppleWebKit/537.36 (KHTML, like Gecko) Chrome/136.0.0.0 Safari/537.36" version="27.0.6">
  <diagram name="Page-1" id="TwmLWg7ab1tGd4AwsoY-">
    <mxGraphModel dx="1048" dy="651" grid="1" gridSize="10" guides="1" tooltips="1" connect="1" arrows="1" fold="1" page="1" pageScale="1" pageWidth="850" pageHeight="1100" math="0" shadow="0">
      <root>
        <mxCell id="0" />
        <mxCell id="1" parent="0" />
        <mxCell id="aiIfV4cMrLsyi0RRTugD-1" value="" style="shape=image;verticalLabelPosition=bottom;verticalAlign=top;imageAspect=0;aspect=fixed;image=data:image/svg+xml,PHN2ZyB4bWxucz0iaHR0cDovL3d3dy53My5vcmcvMjAwMC9zdmciIGlkPSJiaWctZGF0YSIgdmlld0JveD0iNC4wMDAwMDE5MDczNDg2MzMgMy45OTk5OTkwNDYzMjU2ODM2IDQ4IDQ3Ljk5OTk5NjE4NTMwMjczNCIgd2lkdGg9IjQ4IiBoZWlnaHQ9IjQ3Ljk5OTk5NjE4NTMwMjczNCI+PGRlZnM+PHN0eWxlPi5jbHMtMXtmaWxsOiMwNzRkOTI7fS5jbHMtMntmaWxsOiMwNTNiNzA7fS5jbHMtM3tmaWxsOiMwYTZlZDE7fTwvc3R5bGU+PC9kZWZzPjx0aXRsZT5iaWctZGF0YV9jaXJjbGU8L3RpdGxlPjxwYXRoIGNsYXNzPSJjbHMtMSIgZD0iTTI4LDZBMjIsMjIsMCwxLDEsNiwyOCwyMi4wMjUsMjIuMDI1LDAsMCwxLDI4LDZtMC0yQTI0LDI0LDAsMSwwLDUyLDI4LDI0LDI0LDAsMCwwLDI4LDRaIi8+PHJlY3QgY2xhc3M9ImNscy0yIiB4PSIyNS4zNzUiIHk9IjE1Ljg0NCIgd2lkdGg9IjIuNjI1IiBoZWlnaHQ9IjAuODc1Ii8+PGNpcmNsZSBjbGFzcz0iY2xzLTIiIGN4PSIyOS43NSIgY3k9IjE2LjcxOSIgcj0iMC44NzUiLz48cGF0aCBjbGFzcz0iY2xzLTIiIGQ9Ik0zMi4zNzEsMTNIMjMuNjI5YTEuNzU0LDEuNzU0LDAsMCwwLTEuNzU0LDEuNzU0djdoMS43NVYyMGg4Ljc0NnYxLjc1aDEuNzU0di03QTEuNzU0LDEuNzU0LDAsMCwwLDMyLjM3MSwxM1ptMCw1LjI1SDIzLjYyN2wwLTMuNWg4Ljc0MmwwLDBaIi8+PHBhdGggY2xhc3M9ImNscy0zIiBkPSJNMzkuMzcxLDIzLjVIMzAuNjI5YTEuNzU0LDEuNzU0LDAsMCwwLTEuNzU0LDEuNzU0VjM5LjI0NkExLjc1NCwxLjc1NCwwLDAsMCwzMC42MjksNDFoOC43NDJhMS43NTQsMS43NTQsMCwwLDAsMS43NTQtMS43NTRWMjUuMjU0QTEuNzU0LDEuNzU0LDAsMCwwLDM5LjM3MSwyMy41Wm0wLDE1Ljc1LTguNzQ2LDB2LTMuNWg4Ljc0NlptMC01LjI1SDMwLjYyNlYzMC41aDguNzQ3Wm0wLTUuMjVIMzAuNjI4di0zLjVoOC43NDJsMCwwWiIvPjxyZWN0IGNsYXNzPSJjbHMtMyIgeD0iMzIuMzc1IiB5PSIzMS41OTQiIHdpZHRoPSIyLjYyNSIgaGVpZ2h0PSIwLjg3NSIvPjxjaXJjbGUgY2xhc3M9ImNscy0zIiBjeD0iMzYuNzUiIGN5PSIzMi40NjkiIHI9IjAuODc1Ii8+PHJlY3QgY2xhc3M9ImNscy0zIiB4PSIzMi4zNzUiIHk9IjM2Ljg0NCIgd2lkdGg9IjIuNjI1IiBoZWlnaHQ9IjAuODc1Ii8+PGNpcmNsZSBjbGFzcz0iY2xzLTMiIGN4PSIzNi43NSIgY3k9IjM3LjcxOSIgcj0iMC44NzUiLz48cmVjdCBjbGFzcz0iY2xzLTMiIHg9IjMyLjM3NSIgeT0iMjYuMzQ0IiB3aWR0aD0iMi42MjUiIGhlaWdodD0iMC44NzUiLz48Y2lyY2xlIGNsYXNzPSJjbHMtMyIgY3g9IjM2Ljc1IiBjeT0iMjcuMjE5IiByPSIwLjg3NSIvPjxyZWN0IGNsYXNzPSJjbHMtMyIgeD0iMTguMzc1IiB5PSIzMS41OTQiIHdpZHRoPSIyLjYyNSIgaGVpZ2h0PSIwLjg3NSIvPjxjaXJjbGUgY2xhc3M9ImNscy0zIiBjeD0iMjIuNzUiIGN5PSIzMi40NjkiIHI9IjAuODc1Ii8+PHBhdGggY2xhc3M9ImNscy0zIiBkPSJNMjUuMzcxLDIzLjVIMTYuNjI5YTEuNzU0LDEuNzU0LDAsMCwwLTEuNzU0LDEuNzU0VjM5LjI0NkExLjc1NCwxLjc1NCwwLDAsMCwxNi42MjksNDFoOC43NDJhMS43NTQsMS43NTQsMCwwLDAsMS43NTQtMS43NTRWMjUuMjU0QTEuNzU0LDEuNzU0LDAsMCwwLDI1LjM3MSwyMy41Wm0wLDE1Ljc1LTguNzQ2LDB2LTMuNWg4Ljc0NlptMC01LjI1SDE2LjYyNlYzMC41aDguNzQ3Wm0wLTUuMjVIMTYuNjI4di0zLjVoOC43NDJsMCwwWiIvPjxyZWN0IGNsYXNzPSJjbHMtMyIgeD0iMTguMzc1IiB5PSIzNi44NDQiIHdpZHRoPSIyLjYyNSIgaGVpZ2h0PSIwLjg3NSIvPjxjaXJjbGUgY2xhc3M9ImNscy0zIiBjeD0iMjIuNzUiIGN5PSIzNy43MTkiIHI9IjAuODc1Ii8+PHJlY3QgY2xhc3M9ImNscy0zIiB4PSIxOC4zNzUiIHk9IjI2LjM0NCIgd2lkdGg9IjIuNjI1IiBoZWlnaHQ9IjAuODc1Ii8+PGNpcmNsZSBjbGFzcz0iY2xzLTMiIGN4PSIyMi43NSIgY3k9IjI3LjIxOSIgcj0iMC44NzUiLz48L3N2Zz4=;" vertex="1" parent="1">
          <mxGeometry x="110" y="200" width="48" height="48" as="geometry" />
        </mxCell>
      </root>
    </mxGraphModel>
  </diagram>
</mxfile>
